<mxfile host="app.diagrams.net" agent="Mozilla/5.0 (X11; Linux x86_64; rv:138.0) Gecko/20100101 Firefox/138.0" version="27.0.6">
  <diagram name="Page-1" id="PhSbpU3b6vOQKgBNlHbb">
    <mxGraphModel>
      <root>
        <mxCell id="0" />
        <mxCell id="1" parent="0" />
        <mxCell id="2" value="Teradata" style="whiteSpace=wrap;strokeWidth=2;" vertex="1" parent="1">
          <mxGeometry x="221" y="8" width="122" height="54" as="geometry" />
        </mxCell>
        <mxCell id="3" value="ODI" style="whiteSpace=wrap;strokeWidth=2;" vertex="1" parent="1">
          <mxGeometry x="144" y="135" width="88" height="54" as="geometry" />
        </mxCell>
        <mxCell id="4" value="Informatica" style="whiteSpace=wrap;strokeWidth=2;" vertex="1" parent="1">
          <mxGeometry x="282" y="135" width="139" height="54" as="geometry" />
        </mxCell>
        <mxCell id="5" value="Hadoop CDH" style="whiteSpace=wrap;strokeWidth=2;" vertex="1" parent="1">
          <mxGeometry x="205" y="262" width="155" height="54" as="geometry" />
        </mxCell>
        <mxCell id="6" value="Dataiku Data Science" style="whiteSpace=wrap;strokeWidth=2;" vertex="1" parent="1">
          <mxGeometry x="8" y="389" width="214" height="54" as="geometry" />
        </mxCell>
        <mxCell id="7" value="OAS" style="whiteSpace=wrap;strokeWidth=2;" vertex="1" parent="1">
          <mxGeometry x="68" y="516" width="94" height="54" as="geometry" />
        </mxCell>
        <mxCell id="8" value="S3 Storage" style="whiteSpace=wrap;strokeWidth=2;" vertex="1" parent="1">
          <mxGeometry x="213" y="643" width="140" height="54" as="geometry" />
        </mxCell>
        <mxCell id="9" value="Extract Data" style="curved=1;startArrow=none;endArrow=block;exitX=0.18;exitY=1;entryX=0.5;entryY=0;" edge="1" parent="1" source="2" target="3">
          <mxGeometry relative="1" as="geometry">
            <Array as="points">
              <mxPoint x="188" y="99" />
            </Array>
          </mxGeometry>
        </mxCell>
        <mxCell id="10" value="Extract Data" style="curved=1;startArrow=none;endArrow=block;exitX=0.75;exitY=1;entryX=0.5;entryY=0;" edge="1" parent="1" source="2" target="4">
          <mxGeometry relative="1" as="geometry">
            <Array as="points">
              <mxPoint x="352" y="99" />
            </Array>
          </mxGeometry>
        </mxCell>
        <mxCell id="11" value="Transform Data" style="curved=1;startArrow=none;endArrow=block;exitX=0.5;exitY=1;entryX=0.24;entryY=0;" edge="1" parent="1" source="3" target="5">
          <mxGeometry relative="1" as="geometry">
            <Array as="points">
              <mxPoint x="188" y="226" />
            </Array>
          </mxGeometry>
        </mxCell>
        <mxCell id="12" value="Transform Data" style="curved=1;startArrow=none;endArrow=block;exitX=0.5;exitY=1;entryX=0.69;entryY=0;" edge="1" parent="1" source="4" target="5">
          <mxGeometry relative="1" as="geometry">
            <Array as="points">
              <mxPoint x="352" y="226" />
            </Array>
          </mxGeometry>
        </mxCell>
        <mxCell id="13" value="Load Data" style="curved=1;startArrow=none;endArrow=block;exitX=0.04;exitY=1;entryX=0.5;entryY=0;" edge="1" parent="1" source="5" target="6">
          <mxGeometry relative="1" as="geometry">
            <Array as="points">
              <mxPoint x="115" y="353" />
            </Array>
          </mxGeometry>
        </mxCell>
        <mxCell id="14" value="Model and Analyze Data" style="curved=1;startArrow=none;endArrow=block;exitX=0.5;exitY=1;entryX=0.5;entryY=0;" edge="1" parent="1" source="6" target="7">
          <mxGeometry relative="1" as="geometry">
            <Array as="points" />
          </mxGeometry>
        </mxCell>
        <mxCell id="15" value="Visualization and Reporting" style="curved=1;startArrow=none;endArrow=block;exitX=0.5;exitY=1;entryX=0;entryY=0.01;" edge="1" parent="1" source="7" target="8">
          <mxGeometry relative="1" as="geometry">
            <Array as="points">
              <mxPoint x="115" y="607" />
            </Array>
          </mxGeometry>
        </mxCell>
        <mxCell id="16" value="Store Raw Data" style="curved=1;startArrow=none;endArrow=block;exitX=0.5;exitY=1;entryX=0.5;entryY=0;" edge="1" parent="1" source="5" target="8">
          <mxGeometry relative="1" as="geometry">
            <Array as="points" />
          </mxGeometry>
        </mxCell>
        <mxCell id="17" value="Hadoop Storage" style="curved=1;startArrow=none;endArrow=block;exitX=0.92;exitY=0;entryX=0.88;entryY=1;" edge="1" parent="1" source="8" target="5">
          <mxGeometry relative="1" as="geometry">
            <Array as="points">
              <mxPoint x="421" y="607" />
              <mxPoint x="421" y="353" />
            </Array>
          </mxGeometry>
        </mxCell>
      </root>
    </mxGraphModel>
  </diagram>
</mxfile>
